<svg width="1000" height="1000" viewBox="0 0 1000 1000" fill="none" xmlns="http://www.w3.org/2000/svg">
<path d="M930.308 602.79C923.618 602.79 918.194 601.434 914.035 598.722C909.876 596.01 907.797 592.665 907.797 588.687C907.797 584.528 908.972 581.274 911.323 578.923C913.854 576.392 916.295 575.126 918.646 575.126C921.177 575.126 925.245 576.211 930.851 578.381C936.456 580.551 942.242 581.635 948.209 581.635C954.356 581.635 960.504 580.099 966.651 577.025C972.799 573.77 975.873 569.883 975.873 565.362C975.873 560.661 973.522 557.045 968.821 554.514C964.301 551.982 958.786 549.993 952.277 548.547C945.768 546.92 939.258 545.111 932.749 543.123C926.24 541.134 920.635 538.15 915.934 534.172C911.413 530.014 909.153 524.951 909.153 518.984C909.153 509.22 915.391 499.909 927.867 491.049C940.343 482.008 954.085 477.488 969.092 477.488C976.325 477.488 981.84 478.844 985.637 481.556C989.614 484.087 991.603 487.432 991.603 491.591C991.603 495.75 990.338 499.095 987.806 501.626C985.456 503.977 983.015 505.152 980.483 505.152C978.133 505.152 974.155 504.067 968.55 501.897C962.945 499.728 957.068 498.643 950.921 498.643C944.954 498.643 939.71 499.909 935.19 502.44C930.851 504.971 928.681 508.045 928.681 511.661C928.681 515.278 932.116 518.442 938.987 521.154C946.039 523.866 953.723 526.036 962.041 527.663C970.358 529.29 977.952 532.545 984.823 537.427C991.875 542.128 995.4 548.276 995.4 555.87C995.4 567.622 988.53 578.381 974.788 588.145C961.046 597.908 946.22 602.79 930.308 602.79Z" fill="white"/>
<path d="M883.663 564.82C884.929 568.075 887.55 572.504 891.528 578.11C895.687 583.534 897.766 587.964 897.766 591.399C897.766 594.835 896.862 597.637 895.054 599.807C893.246 601.796 890.805 602.79 887.731 602.79C880.318 602.79 873.718 595.106 867.932 579.737L865.763 573.77C856.541 593.117 842.709 602.79 824.266 602.79C815.045 602.79 807.36 599.897 801.213 594.111C795.246 588.145 792.263 580.731 792.263 571.872C792.263 558.13 796.964 546.287 806.366 536.342C815.768 526.397 828.063 521.063 843.251 520.34C839.635 514.012 835.567 509.311 831.047 506.237C826.707 502.982 822.729 501.084 819.113 500.541C815.497 499.999 812.061 499.728 808.807 499.728C805.733 499.547 803.292 498.824 801.484 497.558C799.676 496.292 798.772 493.851 798.772 490.235C798.772 486.438 800.218 483.364 803.111 481.014C806.185 478.663 809.801 477.488 813.96 477.488C825.713 477.488 837.285 483.364 848.676 495.117C860.067 506.87 870.012 525.313 878.51 550.445L883.663 564.82ZM836.471 534.715C829.962 534.715 824.085 536.884 818.842 541.224C813.779 545.563 811.248 551.169 811.248 558.039C811.248 564.91 813.508 570.696 818.028 575.397C822.729 579.918 828.334 582.178 834.844 582.178C841.353 582.178 846.958 579.918 851.659 575.397C856.36 570.696 858.711 565.182 858.711 558.853C858.711 554.333 857.897 550.174 856.27 546.377C854.643 542.399 853.648 539.958 853.286 539.054C848.585 536.161 842.98 534.715 836.471 534.715Z" fill="white"/>
<path d="M770.027 564.82C771.293 568.075 773.915 572.504 777.892 578.11C782.051 583.534 784.13 587.964 784.13 591.399C784.13 594.835 783.226 597.637 781.418 599.807C779.61 601.796 777.169 602.79 774.095 602.79C766.682 602.79 760.082 595.106 754.296 579.737L752.127 573.77C742.905 593.117 729.073 602.79 710.63 602.79C701.409 602.79 693.724 599.897 687.577 594.111C681.61 588.145 678.627 580.731 678.627 571.872C678.627 558.13 683.328 546.287 692.73 536.342C702.132 526.397 714.427 521.063 729.616 520.34C725.999 514.012 721.931 509.311 717.411 506.237C713.071 502.982 709.093 501.084 705.477 500.541C701.861 499.999 698.426 499.728 695.171 499.728C692.097 499.547 689.656 498.824 687.848 497.558C686.04 496.292 685.136 493.851 685.136 490.235C685.136 486.438 686.582 483.364 689.475 481.014C692.549 478.663 696.165 477.488 700.324 477.488C712.077 477.488 723.649 483.364 735.04 495.117C746.431 506.87 756.376 525.313 764.874 550.445L770.027 564.82ZM722.835 534.715C716.326 534.715 710.45 536.884 705.206 541.224C700.143 545.563 697.612 551.169 697.612 558.039C697.612 564.91 699.872 570.696 704.392 575.397C709.093 579.918 714.699 582.178 721.208 582.178C727.717 582.178 733.322 579.918 738.023 575.397C742.724 570.696 745.075 565.182 745.075 558.853C745.075 554.333 744.261 550.174 742.634 546.377C741.007 542.399 740.012 539.958 739.651 539.054C734.95 536.161 729.344 534.715 722.835 534.715Z" fill="white"/>
<path d="M654.963 562.379C656.048 567.623 658.398 572.324 662.015 576.483C665.812 580.46 667.71 584.529 667.71 588.687C667.71 592.846 666.264 596.281 663.371 598.994C660.478 601.525 657.313 602.791 653.878 602.791C650.443 602.791 647.64 602.158 645.47 600.892C643.301 599.626 641.492 597.728 640.046 595.197C638.057 591.399 636.52 586.789 635.435 581.364L623.502 524.68C621.694 516.363 618.801 509.763 614.823 504.881C611.026 499.999 605.059 497.558 596.922 497.558C588.967 497.558 582.729 500.361 578.208 505.966C573.869 511.39 571.609 517.357 571.428 523.866C572.874 566.719 573.598 589.411 573.598 591.942C573.598 594.292 572.513 596.733 570.343 599.265C568.173 601.615 565.371 602.791 561.935 602.791C558.5 602.791 555.516 601.615 552.985 599.265C550.635 596.733 549.459 592.665 549.459 587.06C549.459 581.455 549.911 568.165 550.815 547.191C551.719 526.036 552.171 509.673 552.171 498.101C552.171 486.529 551.719 470.979 550.815 451.451C549.911 431.924 549.459 419.357 549.459 413.752C549.459 408.147 550.635 404.079 552.985 401.547C555.516 399.016 558.5 397.75 561.935 397.75C565.371 397.75 568.173 399.016 570.343 401.547C572.513 403.898 573.598 407.876 573.598 413.481C573.598 418.905 573.146 431.743 572.241 451.994C571.518 472.064 571.157 488.518 571.157 501.355C581.825 485.444 594.12 477.488 608.042 477.488C627.027 477.488 639.232 490.235 644.657 515.73L654.963 562.379Z" fill="white"/>
<path d="M499.227 581.364C499.227 558.582 498.775 538.602 497.871 521.425C496.967 504.248 496.515 494.123 496.515 491.049C496.515 487.975 497.69 484.992 500.04 482.099C502.572 479.025 505.555 477.488 508.991 477.488C512.426 477.488 515.229 478.934 517.398 481.827C519.568 484.54 520.653 488.608 520.653 494.032C520.653 499.276 520.02 508.226 518.754 520.883C517.489 533.359 516.856 546.377 516.856 559.938C516.856 565.362 517.941 570.606 520.11 575.669C522.461 580.551 523.636 585.071 523.636 589.23C523.636 593.207 522.461 596.462 520.11 598.993C517.941 601.525 514.867 602.79 510.889 602.79C507.092 602.79 504.199 600.621 502.21 596.281C500.221 591.942 499.227 586.969 499.227 581.364ZM507.906 446.84C503.928 446.84 500.764 445.756 498.413 443.586C496.062 441.416 494.887 438.252 494.887 434.093C494.887 429.934 496.334 426.409 499.227 423.516C502.12 420.442 505.555 418.905 509.533 418.905C513.511 418.905 516.675 420.08 519.026 422.431C521.557 424.601 522.823 427.765 522.823 431.923C522.823 436.082 521.286 439.608 518.212 442.501C515.319 445.394 511.884 446.84 507.906 446.84Z" fill="white"/>
<path d="M473.484 497.558C472.58 497.558 461.279 496.835 439.582 495.388C439.582 497.739 439.22 506.689 438.497 522.239C437.774 537.789 437.412 549.361 437.412 556.955C437.412 564.368 439.04 570.606 442.294 575.669C445.73 580.551 447.447 584.981 447.447 588.958C447.447 592.936 446.091 596.281 443.379 598.993C440.667 601.525 437.593 602.79 434.158 602.79C425.117 602.79 420.597 595.648 420.597 581.364L419.512 526.307C419.512 515.097 419.241 505.062 418.698 496.202H412.189C409.658 496.202 407.578 495.479 405.951 494.032C404.324 492.405 403.51 490.235 403.51 487.523C403.51 484.811 404.324 482.732 405.951 481.285C407.578 479.658 409.658 478.844 412.189 478.844H417.885C417.523 469.442 417.342 462.3 417.342 457.418C417.342 452.355 418.517 448.377 420.868 445.484C423.399 442.41 426.383 440.874 429.818 440.874C433.254 440.874 436.056 442.32 438.226 445.213C440.396 447.925 441.48 452.446 441.48 458.774C441.48 465.102 441.209 472.064 440.667 479.658L473.484 477.488C480.536 477.488 484.062 480.833 484.062 487.523C484.062 494.213 480.536 497.558 473.484 497.558Z" fill="white"/>
<path d="M364.127 581.364C364.127 558.582 363.675 538.602 362.771 521.425C361.866 504.248 361.414 494.123 361.414 491.049C361.414 487.975 362.59 484.992 364.94 482.099C367.472 479.025 370.455 477.488 373.89 477.488C377.326 477.488 380.128 478.934 382.298 481.827C384.468 484.54 385.553 488.608 385.553 494.032C385.553 499.276 384.92 508.226 383.654 520.883C382.389 533.359 381.756 546.377 381.756 559.938C381.756 565.362 382.841 570.606 385.01 575.669C387.361 580.551 388.536 585.071 388.536 589.23C388.536 593.207 387.361 596.462 385.01 598.993C382.841 601.525 379.767 602.79 375.789 602.79C371.992 602.79 369.099 600.621 367.11 596.281C365.121 591.942 364.127 586.969 364.127 581.364ZM372.806 446.84C368.828 446.84 365.663 445.756 363.313 443.586C360.962 441.416 359.787 438.252 359.787 434.093C359.787 429.934 361.234 426.409 364.127 423.516C367.02 420.442 370.455 418.905 374.433 418.905C378.411 418.905 381.575 420.08 383.925 422.431C386.457 424.601 387.723 427.765 387.723 431.923C387.723 436.082 386.186 439.608 383.112 442.501C380.219 445.394 376.783 446.84 372.806 446.84Z" fill="white"/>
<path d="M247.517 435.367C260.451 436.43 271.655 437.436 279.796 442.486C292.54 449.966 297.865 466.957 293.928 480.873C281.888 520.607 225.662 489.226 191.977 540.445C171.301 569.131 163.236 612.035 140.43 638.044C122.779 657.313 102.826 649.074 90.4624 629.52C77.8707 610.536 71.0802 585.818 59.7248 565.771C45.1929 536.649 9.14848 514.418 4.27915 487.213C1.71134 466.957 17.3845 449.985 29.71 434.95C44.8505 417.484 62.1595 380.446 78.9739 367.916C100.391 352.178 120.648 344.527 141.552 357.797C182.77 386.653 189.428 432.576 247.194 435.348" fill="white"/>
</svg>
