<svg width="700" height="700" viewBox="0 0 700 700" fill="none" xmlns="http://www.w3.org/2000/svg">
<path d="M575.796 201.064C605.689 203.522 631.581 205.848 650.395 217.524C679.848 234.818 692.156 274.102 683.057 306.276C655.231 398.145 525.287 325.589 447.435 444.013C399.651 510.336 381.013 609.535 328.306 669.669C287.511 714.22 241.398 695.171 212.825 649.961C183.724 606.067 168.03 548.918 141.786 502.567C108.202 435.235 24.8987 383.835 13.6451 320.936C7.71064 274.102 43.9331 234.862 72.4187 200.098C107.41 159.716 147.413 74.0804 186.273 45.1108C235.771 8.72325 282.588 -8.96575 330.899 21.7157C426.159 88.4335 441.545 194.611 575.049 201.02" fill="white"/>
</svg>
