<svg width="1000" height="1000" viewBox="0 0 1000 1000" fill="none" xmlns="http://www.w3.org/2000/svg">
<path d="M888.809 657.477C878.516 657.477 870.17 655.39 863.771 651.217C857.373 647.044 854.174 641.898 854.174 635.777C854.174 629.379 855.982 624.371 859.598 620.755C863.493 616.86 867.249 614.912 870.865 614.912C874.76 614.912 881.02 616.582 889.644 619.92C898.268 623.258 907.17 624.928 916.351 624.928C925.81 624.928 935.268 622.563 944.727 617.834C954.186 612.826 958.915 606.845 958.915 599.89C958.915 592.657 955.299 587.093 948.066 583.198C941.111 579.303 932.626 576.243 922.61 574.017C912.595 571.514 902.58 568.732 892.565 565.671C882.55 562.611 873.926 558.021 866.692 551.901C859.738 545.502 856.26 537.712 856.26 528.532C856.26 513.509 865.858 499.182 885.054 485.55C904.249 471.64 925.392 464.685 948.483 464.685C959.611 464.685 968.096 466.772 973.938 470.945C980.058 474.839 983.119 479.986 983.119 486.385C983.119 492.783 981.171 497.93 977.276 501.825C973.66 505.441 969.904 507.25 966.009 507.25C962.393 507.25 956.272 505.58 947.648 502.242C939.024 498.904 929.983 497.234 920.524 497.234C911.343 497.234 903.276 499.182 896.321 503.077C889.644 506.971 886.306 511.701 886.306 517.265C886.306 522.829 891.591 527.697 902.163 531.87C913.013 536.043 924.836 539.382 937.633 541.885C950.43 544.389 962.115 549.397 972.686 556.908C983.536 564.141 988.961 573.6 988.961 585.284C988.961 603.367 978.389 619.92 957.246 634.943C936.103 649.966 913.291 657.477 888.809 657.477Z" fill="white"/>
<path d="M817.04 599.055C818.988 604.063 823.022 610.879 829.142 619.503C835.541 627.849 838.74 634.665 838.74 639.95C838.74 645.236 837.349 649.548 834.567 652.887C831.785 655.947 828.029 657.477 823.3 657.477C811.894 657.477 801.739 645.653 792.837 622.007L789.499 612.826C775.311 642.593 754.028 657.477 725.652 657.477C711.464 657.477 699.641 653.026 690.182 644.123C681.001 634.943 676.411 623.537 676.411 609.905C676.411 588.762 683.644 570.54 698.11 555.239C712.577 539.938 731.494 531.731 754.863 530.618C749.299 520.881 743.04 513.648 736.085 508.919C729.408 503.911 723.287 500.99 717.723 500.156C712.16 499.321 706.874 498.904 701.866 498.904C697.137 498.625 693.381 497.513 690.599 495.565C687.817 493.618 686.426 489.862 686.426 484.298C686.426 478.456 688.652 473.727 693.103 470.11C697.832 466.494 703.396 464.685 709.795 464.685C727.878 464.685 745.682 473.727 763.209 491.81C780.736 509.893 796.036 538.269 809.112 576.938L817.04 599.055ZM744.431 552.735C734.415 552.735 725.374 556.073 717.306 562.75C709.517 569.427 705.622 578.051 705.622 588.623C705.622 599.194 709.099 608.097 716.054 615.33C723.287 622.285 731.912 625.762 741.927 625.762C751.942 625.762 760.566 622.285 767.799 615.33C775.032 608.097 778.649 599.612 778.649 589.875C778.649 582.92 777.397 576.521 774.893 570.679C772.389 564.559 770.859 560.803 770.303 559.412C763.07 554.961 754.446 552.735 744.431 552.735Z" fill="white"/>
<path d="M642.199 599.055C644.146 604.063 648.18 610.879 654.301 619.503C660.699 627.849 663.898 634.665 663.898 639.95C663.898 645.236 662.507 649.548 659.725 652.887C656.944 655.947 653.188 657.477 648.458 657.477C637.052 657.477 626.898 645.653 617.996 622.007L614.657 612.826C600.469 642.593 579.187 657.477 550.811 657.477C536.623 657.477 524.799 653.026 515.34 644.123C506.16 634.943 501.57 623.537 501.57 609.905C501.57 588.762 508.803 570.54 523.269 555.239C537.735 539.938 556.653 531.731 580.022 530.618C574.458 520.881 568.198 513.648 561.243 508.919C554.566 503.911 548.446 500.99 542.882 500.156C537.318 499.321 532.032 498.904 527.025 498.904C522.295 498.625 518.54 497.513 515.758 495.565C512.976 493.618 511.585 489.862 511.585 484.298C511.585 478.456 513.81 473.727 518.262 470.11C522.991 466.494 528.555 464.685 534.953 464.685C553.036 464.685 570.841 473.727 588.368 491.81C605.894 509.893 621.195 538.269 634.27 576.938L642.199 599.055ZM569.589 552.735C559.574 552.735 550.533 556.073 542.465 562.75C534.675 569.427 530.78 578.051 530.78 588.623C530.78 599.194 534.258 608.097 541.213 615.33C548.446 622.285 557.07 625.762 567.085 625.762C577.101 625.762 585.725 622.285 592.958 615.33C600.191 608.097 603.808 599.612 603.808 589.875C603.808 582.92 602.556 576.521 600.052 570.679C597.548 564.559 596.018 560.803 595.462 559.412C588.228 554.961 579.604 552.735 569.589 552.735Z" fill="white"/>
<path d="M465.16 595.3C466.829 603.368 470.446 610.601 476.01 616.999C481.852 623.12 484.773 629.379 484.773 635.778C484.773 642.176 482.548 647.462 478.096 651.635C473.645 655.53 468.777 657.477 463.491 657.477C458.205 657.477 453.893 656.504 450.555 654.556C447.216 652.609 444.434 649.688 442.209 645.793C439.149 639.951 436.784 632.857 435.115 624.511L416.754 537.295C413.972 524.498 409.52 514.344 403.4 506.833C397.558 499.321 388.377 495.566 375.858 495.566C363.618 495.566 354.02 499.878 347.065 508.502C340.388 516.848 336.911 526.028 336.632 536.044C338.858 601.977 339.971 636.891 339.971 640.785C339.971 644.402 338.302 648.158 334.963 652.052C331.625 655.669 327.313 657.477 322.027 657.477C316.741 657.477 312.151 655.669 308.256 652.052C304.64 648.158 302.831 641.898 302.831 633.274C302.831 624.65 303.527 604.202 304.918 571.931C306.309 539.382 307.004 514.205 307.004 496.4C307.004 478.596 306.309 454.67 304.918 424.625C303.527 394.58 302.831 375.245 302.831 366.621C302.831 357.996 304.64 351.737 308.256 347.842C312.151 343.947 316.741 342 322.027 342C327.313 342 331.625 343.947 334.963 347.842C338.302 351.459 339.971 357.579 339.971 366.203C339.971 374.549 339.275 394.301 337.884 425.46C336.772 456.34 336.215 481.656 336.215 501.408C352.629 476.926 371.546 464.686 392.968 464.686C422.178 464.686 440.957 484.299 449.303 523.525L465.16 595.3Z" fill="white"/>
<path d="M225.543 624.51C225.543 589.457 224.848 558.717 223.457 532.288C222.066 505.859 221.37 490.28 221.37 485.55C221.37 480.821 223.179 476.231 226.795 471.779C230.69 467.05 235.28 464.685 240.566 464.685C245.852 464.685 250.164 466.911 253.502 471.362C256.841 475.535 258.51 481.795 258.51 490.141C258.51 498.208 257.536 511.979 255.589 531.453C253.641 550.649 252.668 570.679 252.668 591.544C252.668 599.89 254.337 607.958 257.675 615.747C261.292 623.259 263.1 630.214 263.1 636.612C263.1 642.733 261.292 647.74 257.675 651.635C254.337 655.53 249.607 657.477 243.487 657.477C237.645 657.477 233.194 654.139 230.133 647.462C227.073 640.785 225.543 633.135 225.543 624.51ZM238.897 417.531C232.776 417.531 227.908 415.862 224.291 412.523C220.675 409.185 218.866 404.316 218.866 397.918C218.866 391.519 221.092 386.094 225.543 381.643C229.994 376.914 235.28 374.549 241.401 374.549C247.521 374.549 252.389 376.357 256.006 379.974C259.901 383.312 261.848 388.181 261.848 394.579C261.848 400.978 259.483 406.403 254.754 410.854C250.303 415.305 245.017 417.531 238.897 417.531Z" fill="white"/>
<path d="M185.935 495.565C184.544 495.565 167.157 494.453 133.773 492.227C133.773 495.844 133.217 509.615 132.104 533.54C130.991 557.465 130.435 575.269 130.435 586.954C130.435 598.36 132.938 607.958 137.946 615.747C143.232 623.259 145.875 630.075 145.875 636.195C145.875 642.315 143.788 647.462 139.615 651.635C135.442 655.53 130.713 657.477 125.427 657.477C111.517 657.477 104.562 646.488 104.562 624.511L102.893 539.799C102.893 522.551 102.476 507.111 101.641 493.479H91.626C87.7312 493.479 84.5319 492.366 82.0281 490.141C79.5244 487.637 78.2725 484.298 78.2725 480.125C78.2725 475.952 79.5244 472.753 82.0281 470.528C84.5319 468.024 87.7312 466.772 91.626 466.772H100.389C99.8329 452.306 99.5547 441.317 99.5547 433.805C99.5547 426.016 101.363 419.895 104.98 415.444C108.874 410.715 113.465 408.35 118.75 408.35C124.036 408.35 128.348 410.576 131.687 415.027C135.025 419.2 136.694 426.155 136.694 435.892C136.694 445.629 136.277 456.339 135.442 468.024L185.935 464.685C196.785 464.685 202.21 469.832 202.21 480.125C202.21 490.419 196.785 495.565 185.935 495.565Z" fill="white"/>
<path d="M17.6768 624.51C17.6768 589.457 16.9813 558.717 15.5903 532.288C14.1993 505.859 13.5038 490.28 13.5038 485.55C13.5038 480.821 15.3121 476.231 18.9287 471.779C22.8234 467.05 27.4137 464.685 32.6995 464.685C37.9853 464.685 42.2974 466.911 45.6357 471.362C48.9741 475.535 50.6433 481.795 50.6433 490.141C50.6433 498.208 49.6696 511.979 47.7222 531.453C45.7748 550.649 44.8011 570.679 44.8011 591.544C44.8011 599.89 46.4703 607.958 49.8087 615.747C53.4253 623.259 55.2336 630.214 55.2336 636.612C55.2336 642.733 53.4253 647.74 49.8087 651.635C46.4703 655.53 41.741 657.477 35.6206 657.477C29.7784 657.477 25.3272 654.139 22.267 647.462C19.2069 640.785 17.6768 633.135 17.6768 624.51ZM31.0303 417.531C24.9099 417.531 20.0415 415.862 16.4249 412.523C12.8083 409.185 11 404.316 11 397.918C11 391.519 13.2256 386.094 17.6768 381.643C22.1279 376.914 27.4137 374.549 33.5341 374.549C39.6545 374.549 44.5229 376.357 48.1395 379.974C52.0343 383.312 53.9817 388.181 53.9817 394.579C53.9817 400.978 51.617 406.403 46.8876 410.854C42.4365 415.305 37.1507 417.531 31.0303 417.531Z" fill="white"/>
</svg>
