<svg width="1000" height="1000" viewBox="0 0 1000 1000" fill="none" xmlns="http://www.w3.org/2000/svg">
<path d="M804.643 299.444C844.884 302.751 879.74 305.881 905.068 321.59C944.718 344.858 961.288 397.712 949.038 441C911.578 564.603 736.647 466.984 631.841 626.315C567.514 715.548 542.423 849.013 471.468 929.918C416.55 989.86 354.472 964.23 316.006 903.403C276.83 844.347 255.703 767.457 220.374 705.095C175.161 614.504 63.0182 545.35 47.8685 460.724C39.8794 397.712 88.6425 344.917 126.99 298.145C174.096 243.814 227.949 128.597 280.262 89.6208C346.897 40.6639 409.922 16.8647 474.959 58.1443C603.199 147.908 623.912 290.763 803.637 299.385" fill="#02B72F"/>
</svg>
