<svg width="1000" height="1000" viewBox="0 0 1000 1000" fill="none" xmlns="http://www.w3.org/2000/svg">
<path d="M880.514 591.218C874.609 591.218 869.822 590.021 866.152 587.627C862.482 585.234 860.646 582.281 860.646 578.771C860.646 575.101 861.684 572.228 863.758 570.154C865.992 567.92 868.147 566.803 870.221 566.803C872.455 566.803 876.046 567.76 880.992 569.675C885.939 571.59 891.046 572.547 896.312 572.547C901.737 572.547 907.163 571.191 912.588 568.478C918.014 565.606 920.727 562.175 920.727 558.186C920.727 554.037 918.652 550.845 914.503 548.611C910.514 546.377 905.647 544.622 899.902 543.345C894.157 541.909 888.413 540.313 882.668 538.558C876.923 536.802 871.976 534.169 867.827 530.659C863.838 526.989 861.843 522.52 861.843 517.254C861.843 508.637 867.349 500.419 878.359 492.6C889.37 484.621 901.498 480.632 914.743 480.632C921.126 480.632 925.993 481.829 929.344 484.222C932.854 486.456 934.61 489.409 934.61 493.079C934.61 496.749 933.493 499.701 931.259 501.935C929.184 504.01 927.03 505.047 924.796 505.047C922.721 505.047 919.211 504.089 914.264 502.175C909.317 500.26 904.131 499.302 898.705 499.302C893.439 499.302 888.812 500.419 884.822 502.653C880.992 504.887 879.077 507.6 879.077 510.792C879.077 513.983 882.109 516.776 888.173 519.169C894.397 521.563 901.179 523.478 908.519 524.914C915.86 526.35 922.562 529.223 928.626 533.531C934.849 537.68 937.961 543.106 937.961 549.808C937.961 560.18 931.897 569.675 919.769 578.292C907.641 586.909 894.556 591.218 880.514 591.218Z" fill="white"/>
<path d="M839.347 557.707C840.464 560.579 842.778 564.489 846.288 569.436C849.959 574.223 851.794 578.132 851.794 581.164C851.794 584.196 850.996 586.67 849.4 588.585C847.804 590.34 845.65 591.218 842.937 591.218C836.395 591.218 830.57 584.436 825.464 570.872L823.549 565.606C815.41 582.68 803.203 591.218 786.926 591.218C778.788 591.218 772.006 588.664 766.58 583.558C761.314 578.292 758.681 571.749 758.681 563.93C758.681 551.803 762.83 541.35 771.128 532.574C779.426 523.797 790.277 519.09 803.682 518.451C800.49 512.866 796.9 508.717 792.91 506.004C789.081 503.132 785.57 501.456 782.378 500.978C779.187 500.499 776.155 500.26 773.283 500.26C770.57 500.1 768.415 499.462 766.82 498.345C765.224 497.228 764.426 495.073 764.426 491.882C764.426 488.531 765.703 485.818 768.256 483.744C770.969 481.669 774.16 480.632 777.83 480.632C788.203 480.632 798.416 485.818 808.469 496.19C818.522 506.563 827.299 522.84 834.799 545.021L839.347 557.707ZM797.698 531.138C791.953 531.138 786.767 533.052 782.139 536.882C777.671 540.712 775.437 545.659 775.437 551.723C775.437 557.787 777.431 562.893 781.421 567.042C785.57 571.031 790.517 573.026 796.261 573.026C802.006 573.026 806.953 571.031 811.102 567.042C815.251 562.893 817.325 558.026 817.325 552.441C817.325 548.451 816.607 544.781 815.171 541.43C813.735 537.919 812.857 535.765 812.538 534.967C808.389 532.414 803.442 531.138 797.698 531.138Z" fill="white"/>
<path d="M739.057 557.707C740.174 560.579 742.488 564.489 745.999 569.436C749.669 574.223 751.504 578.132 751.504 581.164C751.504 584.196 750.706 586.67 749.111 588.585C747.515 590.34 745.361 591.218 742.648 591.218C736.105 591.218 730.281 584.436 725.174 570.872L723.259 565.606C715.121 582.68 702.914 591.218 686.637 591.218C678.498 591.218 671.717 588.664 666.291 583.558C661.025 578.292 658.392 571.749 658.392 563.93C658.392 551.803 662.541 541.35 670.839 532.574C679.137 523.797 689.988 519.09 703.392 518.451C700.201 512.866 696.61 508.717 692.621 506.004C688.791 503.132 685.28 501.456 682.089 500.978C678.897 500.499 675.865 500.26 672.993 500.26C670.28 500.1 668.126 499.462 666.53 498.345C664.935 497.228 664.137 495.073 664.137 491.882C664.137 488.531 665.413 485.818 667.967 483.744C670.679 481.669 673.871 480.632 677.541 480.632C687.913 480.632 698.126 485.818 708.18 496.19C718.233 506.563 727.009 522.84 734.509 545.021L739.057 557.707ZM697.408 531.138C691.663 531.138 686.477 533.052 681.85 536.882C677.381 540.712 675.147 545.659 675.147 551.723C675.147 557.787 677.142 562.893 681.131 567.042C685.28 571.031 690.227 573.026 695.972 573.026C701.717 573.026 706.664 571.031 710.812 567.042C714.961 562.893 717.036 558.026 717.036 552.441C717.036 548.451 716.318 544.781 714.882 541.43C713.445 537.919 712.568 535.765 712.249 534.967C708.1 532.414 703.153 531.138 697.408 531.138Z" fill="white"/>
<path d="M637.507 555.553C638.465 560.18 640.539 564.329 643.731 568C647.082 571.51 648.757 575.101 648.757 578.771C648.757 582.441 647.481 585.473 644.928 587.867C642.374 590.101 639.582 591.218 636.55 591.218C633.518 591.218 631.045 590.659 629.13 589.542C627.215 588.425 625.619 586.75 624.342 584.516C622.587 581.165 621.231 577.095 620.273 572.308L609.741 522.281C608.146 514.941 605.592 509.116 602.082 504.808C598.731 500.499 593.465 498.345 586.284 498.345C579.262 498.345 573.757 500.818 569.768 505.765C565.938 510.553 563.943 515.819 563.784 521.563C565.06 559.383 565.698 579.409 565.698 581.643C565.698 583.718 564.741 585.872 562.826 588.106C560.911 590.181 558.438 591.218 555.406 591.218C552.374 591.218 549.741 590.181 547.507 588.106C545.432 585.872 544.395 582.282 544.395 577.335C544.395 572.388 544.794 560.659 545.592 542.148C546.39 523.478 546.789 509.037 546.789 498.824C546.789 488.611 546.39 474.887 545.592 457.653C544.794 440.419 544.395 429.329 544.395 424.382C544.395 419.435 545.432 415.844 547.507 413.61C549.741 411.376 552.374 410.259 555.406 410.259C558.438 410.259 560.911 411.376 562.826 413.61C564.741 415.685 565.698 419.196 565.698 424.142C565.698 428.93 565.3 440.26 564.502 458.132C563.863 475.845 563.544 490.366 563.544 501.696C572.959 487.653 583.81 480.632 596.098 480.632C612.853 480.632 623.624 491.882 628.412 514.382L637.507 555.553Z" fill="white"/>
<path d="M500.062 572.308C500.062 552.202 499.664 534.569 498.866 519.409C498.068 504.249 497.669 495.313 497.669 492.6C497.669 489.887 498.706 487.254 500.781 484.701C503.015 481.988 505.648 480.632 508.68 480.632C511.711 480.632 514.185 481.909 516.1 484.462C518.015 486.855 518.972 490.446 518.972 495.233C518.972 499.861 518.414 507.76 517.297 518.93C516.18 529.941 515.621 541.43 515.621 553.398C515.621 558.186 516.579 562.813 518.493 567.281C520.568 571.59 521.605 575.579 521.605 579.25C521.605 582.76 520.568 585.633 518.493 587.867C516.579 590.101 513.866 591.218 510.355 591.218C507.004 591.218 504.451 589.303 502.695 585.473C500.94 581.643 500.062 577.255 500.062 572.308ZM507.722 453.584C504.211 453.584 501.419 452.627 499.344 450.712C497.27 448.797 496.233 446.004 496.233 442.334C496.233 438.664 497.509 435.552 500.062 432.999C502.616 430.286 505.648 428.93 509.158 428.93C512.669 428.93 515.462 429.967 517.536 432.041C519.77 433.956 520.887 436.749 520.887 440.419C520.887 444.089 519.531 447.201 516.818 449.754C514.265 452.307 511.233 453.584 507.722 453.584Z" fill="white"/>
<path d="M477.343 498.345C476.545 498.345 466.572 497.707 447.423 496.43C447.423 498.504 447.104 506.403 446.465 520.127C445.827 533.85 445.508 544.063 445.508 550.765C445.508 557.308 446.944 562.813 449.817 567.281C452.849 571.59 454.364 575.5 454.364 579.01C454.364 582.521 453.168 585.473 450.774 587.867C448.38 590.101 445.668 591.218 442.636 591.218C434.657 591.218 430.668 584.915 430.668 572.308L429.71 523.717C429.71 513.824 429.471 504.967 428.992 497.148H423.247C421.013 497.148 419.178 496.51 417.742 495.233C416.306 493.797 415.588 491.882 415.588 489.488C415.588 487.095 416.306 485.26 417.742 483.983C419.178 482.547 421.013 481.829 423.247 481.829H428.274C427.955 473.531 427.795 467.228 427.795 462.919C427.795 458.451 428.832 454.94 430.907 452.387C433.141 449.674 435.774 448.318 438.806 448.318C441.838 448.318 444.311 449.595 446.226 452.148C448.141 454.541 449.098 458.531 449.098 464.116C449.098 469.701 448.859 475.845 448.38 482.547L477.343 480.632C483.567 480.632 486.679 483.584 486.679 489.488C486.679 495.393 483.567 498.345 477.343 498.345Z" fill="white"/>
<path d="M380.83 572.308C380.83 552.202 380.431 534.569 379.633 519.409C378.835 504.249 378.436 495.313 378.436 492.6C378.436 489.887 379.473 487.254 381.548 484.701C383.782 481.988 386.415 480.632 389.447 480.632C392.479 480.632 394.952 481.909 396.867 484.462C398.782 486.855 399.739 490.446 399.739 495.233C399.739 499.861 399.181 507.76 398.064 518.93C396.947 529.941 396.388 541.43 396.388 553.398C396.388 558.186 397.346 562.813 399.261 567.281C401.335 571.59 402.372 575.579 402.372 579.25C402.372 582.76 401.335 585.633 399.261 587.867C397.346 590.101 394.633 591.218 391.122 591.218C387.771 591.218 385.218 589.303 383.463 585.473C381.707 581.643 380.83 577.255 380.83 572.308ZM388.489 453.584C384.979 453.584 382.186 452.627 380.112 450.712C378.037 448.797 377 446.004 377 442.334C377 438.664 378.277 435.552 380.83 432.999C383.383 430.286 386.415 428.93 389.926 428.93C393.436 428.93 396.229 429.967 398.303 432.041C400.537 433.956 401.654 436.749 401.654 440.419C401.654 444.089 400.298 447.201 397.585 449.754C395.032 452.307 392 453.584 388.489 453.584Z" fill="white"/>
<path d="M277.916 443.458C289.331 444.397 299.219 445.285 306.404 449.741C317.651 456.343 322.351 471.338 318.876 483.619C308.25 518.687 258.628 490.991 228.899 536.195C210.651 561.511 203.534 599.377 183.406 622.331C167.828 639.337 150.219 632.065 139.307 614.808C128.195 598.053 122.202 576.239 112.18 558.546C99.3548 532.844 67.5438 513.225 63.2464 489.215C60.9801 471.338 74.8125 456.359 85.6903 443.09C99.0527 427.675 114.329 394.987 129.168 383.929C148.07 370.039 165.948 363.287 184.397 374.999C220.774 400.466 226.649 440.995 277.631 443.442" fill="#02B72F"/>
</svg>
